<?xml version="1.0" standalone="no"?><svg xmlns="http://www.w3.org/2000/svg" viewBox="0 0 1440 320"><path fill="#000b76" fill-opacity="1" d="M0,192L16,202.7C32,213,64,235,96,229.3C128,224,160,192,192,186.7C224,181,256,203,288,181.3C320,160,352,96,384,106.7C416,117,448,203,480,245.3C512,288,544,288,576,272C608,256,640,224,672,224C704,224,736,256,768,229.3C800,203,832,117,864,106.7C896,96,928,160,960,160C992,160,1024,96,1056,74.7C1088,53,1120,75,1152,74.7C1184,75,1216,53,1248,42.7C1280,32,1312,32,1344,48C1376,64,1408,96,1424,112L1440,128L1440,320L1424,320C1408,320,1376,320,1344,320C1312,320,1280,320,1248,320C1216,320,1184,320,1152,320C1120,320,1088,320,1056,320C1024,320,992,320,960,320C928,320,896,320,864,320C832,320,800,320,768,320C736,320,704,320,672,320C640,320,608,320,576,320C544,320,512,320,480,320C448,320,416,320,384,320C352,320,320,320,288,320C256,320,224,320,192,320C160,320,128,320,96,320C64,320,32,320,16,320L0,320Z"></path></svg>